<?xml version="1.0" standalone="no"?>
<!DOCTYPE svg PUBLIC "-//W3C//DTD SVG 20010904//EN"
 "http://www.w3.org/TR/2001/REC-SVG-20010904/DTD/svg10.dtd">
<svg version="1.0" xmlns="http://www.w3.org/2000/svg"
 width="48.000000pt" height="48.000000pt" viewBox="0 0 48.000000 48.000000"
 preserveAspectRatio="xMidYMid meet">

<g transform="translate(0.000000,48.000000) scale(0.100000,-0.100000)"
fill="#000000" stroke="none">
<path d="M172 429 c-48 -14 -109 -80 -123 -131 -23 -89 12 -182 88 -229 57
-36 154 -34 210 3 62 41 88 90 88 168 0 77 -26 127 -85 166 -43 29 -125 39
-178 23z m148 -42 c51 -27 90 -90 90 -147 0 -87 -83 -170 -170 -170 -87 0
-170 83 -170 170 0 20 10 56 23 80 27 51 90 90 147 90 20 0 56 -10 80 -23z"/>
<path d="M200 340 c-11 -11 -20 -29 -20 -40 0 -26 34 -60 60 -60 26 0 60 34
60 60 0 11 -9 29 -20 40 -11 11 -29 20 -40 20 -11 0 -29 -9 -40 -20z m65 -40
c0 -18 -6 -26 -23 -28 -24 -4 -38 18 -28 44 3 9 15 14 28 12 17 -2 23 -10 23
-28z"/>
<path d="M150 205 c-31 -38 23 -95 90 -95 67 0 121 57 90 95 -18 21 -162 21
-180 0z m158 -32 c-4 -24 -60 -38 -100 -27 -18 6 -34 17 -36 27 -3 15 6 17 68
17 62 0 71 -2 68 -17z"/>
</g>
</svg>
